<?xml version="1.0" ?><svg data-name="Layer 1" id="Layer_1" viewBox="0 0 64 64" xmlns="http://www.w3.org/2000/svg"><defs><style>.cls-1{fill:#a0765f;}.cls-16,.cls-2,.cls-5,.cls-6,.cls-7{fill:none;}.cls-12,.cls-16,.cls-17,.cls-2,.cls-7,.cls-8,.cls-9{stroke:#343433;}.cls-15,.cls-16,.cls-2,.cls-6{stroke-miterlimit:10;}.cls-12,.cls-15,.cls-17,.cls-2,.cls-5,.cls-7,.cls-8,.cls-9{stroke-width:2px;}.cls-3{fill:#ad8064;}.cls-4{fill:#333;}.cls-15,.cls-5,.cls-6{stroke:#333;}.cls-12,.cls-17,.cls-5,.cls-7,.cls-8,.cls-9{stroke-linejoin:round;}.cls-12,.cls-16,.cls-6,.cls-8,.cls-9{stroke-linecap:round;}.cls-10,.cls-15,.cls-8{fill:#858140;}.cls-14,.cls-9{fill:#64622e;}.cls-11{fill:#f4e2be;}.cls-12{fill:#343433;}.cls-13{fill:#fff;}.cls-17{fill:#efeded;}</style></defs><title/><g id="Men"><polygon class="cls-1" points="38.06 44 32.06 48 26.06 44 26.06 40 38.06 40 38.06 44"/><line class="cls-2" x1="26.06" x2="26.06" y1="44" y2="41"/><path class="cls-3" d="M32.16,43a8.07,8.07,0,0,1-3.39-.46c-3.34-1.75-6.71-5.23-6.71-7.54V33a5.58,5.58,0,0,1-3-4c-.46-2.18.47-4.32,2-4V22c0-5,3.07-10,11-10s11,4,11,9v4c1.53-.32,2.47,1.82,2,4a5.53,5.53,0,0,1-3,4v2c0,2.31-3.17,5.79-6.51,7.54A8.07,8.07,0,0,1,32.16,43Z"/><path class="cls-1" d="M43.06,25V21c0-5-3.06-9-11-9h-.88c-1,4.16-4,9.48-4,21.09A61.45,61.45,0,0,0,27.75,42l1,.59a8.07,8.07,0,0,0,3.39.46,8.07,8.07,0,0,0,3.39-.46C38.87,40.84,42,37.36,42,35.05V33a5.53,5.53,0,0,0,3-4C45.53,26.82,44.59,24.68,43.06,25Z"/><path class="cls-4" d="M44.87,25.71a6.43,6.43,0,0,0-1.26.73,5.74,5.74,0,0,0-1,1A3.91,3.91,0,0,0,42,28.67,4,4,0,0,0,41.78,30a.72.72,0,0,1-1.43,0h0a19.52,19.52,0,0,0-.12-2.69,2.77,2.77,0,0,0-.28-1,1.15,1.15,0,0,0-.61-.53,7.18,7.18,0,0,1-2.5-1.86,18,18,0,0,1-1.61-2.41l1.52.19A12,12,0,0,1,33,24.42a21.8,21.8,0,0,1-4.29,1.32l-2.15.42a3.76,3.76,0,0,0-1.61.59c-.87.59-1.15,1.86-1.16,3.25H22.34a5,5,0,0,0-.61-2.59,5.5,5.5,0,0,0-1.87-2h0a.47.47,0,0,1-.14-.63.46.46,0,0,1,.59-.17,6.14,6.14,0,0,1,1.39.93,6,6,0,0,1,1.11,1.25,6.26,6.26,0,0,1,1,3.23.73.73,0,0,1-1.45.06V30a8.72,8.72,0,0,1,.17-2.35,4.13,4.13,0,0,1,1.36-2.25,5.31,5.31,0,0,1,2.32-1c.7-.16,1.39-.32,2.07-.5a24.42,24.42,0,0,0,3.9-1.29,10.66,10.66,0,0,0,3.22-2.25h0a1,1,0,0,1,1.35,0,.9.9,0,0,1,.15.19,16.84,16.84,0,0,0,1.36,2.23A5.24,5.24,0,0,0,40.1,24.2a2.9,2.9,0,0,1,1.35,1.33,4,4,0,0,1,.38,1.65V30H40.35a5.49,5.49,0,0,1,.36-1.79,5,5,0,0,1,1-1.53A6.76,6.76,0,0,1,43,25.57a7.51,7.51,0,0,1,1.57-.73.46.46,0,0,1,.57.3.45.45,0,0,1-.26.56Z"/><path class="cls-5" d="M27.09,37.84a2,2,0,0,1,1.49-1.93,15.41,15.41,0,0,1,3.51-.57,15.23,15.23,0,0,1,3.51.57,2,2,0,0,1,1.49,1.93"/><path class="cls-6" d="M30.21,34.19l1.1.3a2.78,2.78,0,0,0,1.8,0l1.1-.3"/><circle class="cls-4" cx="27.37" cy="29.89" r="1"/><circle class="cls-4" cx="36.87" cy="29.89" r="1"/><line class="cls-6" x1="30.21" x2="34.21" y1="38" y2="38"/><path class="cls-7" d="M32.16,43a8.07,8.07,0,0,1-3.39-.46c-3.34-1.75-6.71-5.23-6.71-7.54V33a5.58,5.58,0,0,1-3-4c-.46-2.18.47-4.32,2-4V22c0-5,3.07-10,11-10s11,4,11,9v4c1.53-.32,2.47,1.82,2,4a5.53,5.53,0,0,1-3,4v2c0,2.31-3.17,5.79-6.51,7.54A8.07,8.07,0,0,1,32.16,43Z"/><path class="cls-8" d="M32.06,3c-9.5,0-16,8.15-16,13,0,5.41,10.46,7,16,7s16-1.62,16-7C48.06,12,42.72,3,32.06,3Z"/><path class="cls-9" d="M32.06,14c-9,0-12,5-12,5v5c3.11,5,9,5,12,5s8.9,0,12-5V19S41.06,14,32.06,14Z"/><path class="cls-10" d="M27.91,16.14A3,3,0,0,0,32,17.23,3,3,0,0,0,27.91,16.14Z"/><path class="cls-10" d="M28.57,19.71A3,3,0,0,1,32,17.22,3,3,0,0,1,28.57,19.71Z"/><path class="cls-10" d="M25.56,17a2.26,2.26,0,0,0,3.08.82A2.26,2.26,0,0,0,25.56,17Z"/><path class="cls-10" d="M26.06,19.71a2.26,2.26,0,0,1,2.58-1.87A2.26,2.26,0,0,1,26.06,19.71Z"/><path class="cls-10" d="M23.65,17.73a1.69,1.69,0,0,0,2.3.62A1.69,1.69,0,0,0,23.65,17.73Z"/><path class="cls-10" d="M24,19.74a1.68,1.68,0,0,1,1.91-1.42l.09,0a1.68,1.68,0,0,1-1.91,1.42Z"/><path class="cls-10" d="M36.23,16.14a3,3,0,0,1-4.1,1.09A3,3,0,0,1,36.23,16.14Z"/><path class="cls-10" d="M35.57,19.71a3,3,0,0,0-3.43-2.49h0a3,3,0,0,0,3.43,2.49Z"/><path class="cls-10" d="M38.58,17a2.26,2.26,0,0,1-3.08.82A2.26,2.26,0,0,1,38.58,17Z"/><path class="cls-10" d="M38.08,19.71a2.26,2.26,0,0,0-2.58-1.87A2.26,2.26,0,0,0,38.08,19.71Z"/><path class="cls-10" d="M40.49,17.73a1.7,1.7,0,0,1-2.31.62A1.7,1.7,0,0,1,40.49,17.73Z"/><path class="cls-10" d="M40.12,19.74a1.68,1.68,0,0,0-1.92-1.4h0a1.68,1.68,0,0,0,1.92,1.4Z"/><path class="cls-11" d="M32,8a4,4,0,0,0-4,4h8A4,4,0,0,0,32,8Z"/><path class="cls-12" d="M20.06,24c3.11,5,9,5,12,5s8.9,0,12-5c-1-1-7-3-12-3S21.06,23,20.06,24Z"/><line class="cls-2" x1="38.06" x2="38.06" y1="44" y2="41"/><path class="cls-13" d="M32.06,60.5A60.85,60.85,0,0,1,7.63,55.56l.54-2.83a4.5,4.5,0,0,1,3-3.24l12.34-2,.91-4.56,7.74,5.84,7.62-5.86.89,3.55L53,49.54a4.86,4.86,0,0,1,3.18,3.24l.4,3A61,61,0,0,1,32.06,60.5Z"/><path d="M39.46,43.72l.63,2.52.15.58.58.15,12,3a4.43,4.43,0,0,1,2.8,2.83L56,55.38A60.46,60.46,0,0,1,32.06,60,60.35,60.35,0,0,1,8.2,55.25l.46-2.43A4,4,0,0,1,11.23,50l12-2,.68-.12L24,47.2l.69-3.44,6.81,5.13.61.46.6-.46,6.71-5.17M40,42,32.1,48.1l-8-6.1-1,5-12,2a4.94,4.94,0,0,0-3.39,3.63l-.6,3.22a61.2,61.2,0,0,0,25,5.15,61.12,61.12,0,0,0,25-5l-.45-3.37A5.4,5.4,0,0,0,53.06,49l-12-3-1-4Z"/><path class="cls-14" d="M23.06,47,11,49a4.92,4.92,0,0,0-3.39,3.63C7.4,53.74,7,56,7,56a60.19,60.19,0,0,0,21,4.87Z"/><path class="cls-14" d="M41.29,46.1,53.09,49a5,5,0,0,1,3.39,3.63L57.09,56a60.19,60.19,0,0,1-21,4.87Z"/><path class="cls-15" d="M36,61c-.13-.12-3-8-3-8H31l-3,8"/><line class="cls-16" x1="32.06" x2="32.06" y1="54" y2="56"/><polygon class="cls-8" points="31.98 48.09 29.06 51 31.06 53 33.06 53 35.06 51 31.98 48.09"/><polygon class="cls-17" points="24.06 42 23.06 46 28.06 53 32.06 48 24.06 42"/><polygon class="cls-17" points="40.06 42 41.06 46 36.06 53 32.06 48 40.06 42"/><path class="cls-11" d="M13.1,50.1a.76.76,0,0,1-.87-.62L12,48a.74.74,0,0,1,.6-.86h0l6.24-1a.76.76,0,0,1,.87.62L20,48.2a.76.76,0,0,1-.61.87Z"/><path class="cls-4" d="M19,46.85l.25,1.48-6.24,1-.25-1.48,6.24-1m-.25-1.48-6.24,1a1.5,1.5,0,0,0-1.23,1.73h0l.25,1.48a1.5,1.5,0,0,0,1.73,1.22l6.24-1a1.5,1.5,0,0,0,1.23-1.73h0l-.25-1.48a1.5,1.5,0,0,0-1.73-1.23h0Z"/><path class="cls-11" d="M51.16,50.1a.75.75,0,0,0,.86-.62L52.27,48a.74.74,0,0,0-.6-.86h0l-6.24-1a.76.76,0,0,0-.87.62L44.3,48.2a.76.76,0,0,0,.62.87Z"/><path class="cls-4" d="M45.29,46.85l6.24,1-.25,1.48-6.24-1,.25-1.48m-1.48-.25-.25,1.48a1.5,1.5,0,0,0,1.23,1.73h0l6.24,1a1.5,1.5,0,0,0,1.73-1.22L53,48.13a1.5,1.5,0,0,0-1.22-1.73l-6.25-1A1.5,1.5,0,0,0,43.81,46.6Z"/><polygon class="cls-10" points="19.06 45 16.06 50 18.14 52.03 16.14 55.03 22.32 60.46 28.31 61.04 22.06 44 19.06 45"/><polygon class="cls-10" points="48.06 50 45.06 45 42.06 44 35.82 61.04 41.81 60.46 47.99 55.03 45.99 52.03 48.06 50"/><polyline class="cls-7" points="28.31 61.04 22.06 44 19.06 45 16.06 50 18.14 52.03 16.14 55.03 22.32 60.46"/><polyline class="cls-7" points="35.82 61.04 42.06 44 45.06 45 48.06 50 45.99 52.03 47.99 55.03 41.81 60.46"/><path class="cls-7" d="M52.05,48.83l1,.17a4.92,4.92,0,0,1,3.39,3.63c.21,1.11.61,3.37.61,3.37a61.65,61.65,0,0,1-25,5,61.72,61.72,0,0,1-25-5l.61-3.37A4.94,4.94,0,0,1,11.06,49l1-.16"/></g></svg>